<svg width="240" height="240" viewBox="0 0 240 240" fill="none" xmlns="http://www.w3.org/2000/svg">
<g clip-path="url(#clip0_600_133)">
<rect width="240" height="240" rx="60" fill="#202020"/>
<circle cx="120" cy="120" r="90" fill="#01FF66"/>
<path d="M83.5039 83.5C85.313 81.6909 85.313 78.7579 83.5039 76.9488C81.6949 75.1398 78.7618 75.1398 76.9528 76.9488C75.1437 78.7579 75.1437 81.6909 76.9528 83.5C78.7618 85.309 81.6949 85.309 83.5039 83.5Z" fill="#202020"/>
<path d="M70.8696 149.479C72.6786 151.288 72.6786 154.221 70.8696 156.03C69.0605 157.839 66.1275 157.839 64.3185 156.03C62.5094 154.221 62.5094 151.288 64.3185 149.479C66.1275 147.67 69.0605 147.67 70.8696 149.479Z" fill="#202020"/>
<path d="M103.391 146.906C105.2 145.097 105.2 142.164 103.391 140.354C101.582 138.545 98.6492 138.545 96.8402 140.354C95.0311 142.164 95.0311 145.097 96.8402 146.906C98.6492 148.715 101.582 148.715 103.391 146.906Z" fill="#202020"/>
<path d="M164.925 158.37C166.734 160.179 166.734 163.112 164.925 164.921C163.116 166.73 160.183 166.73 158.374 164.921C156.565 163.112 156.565 160.179 158.374 158.37C160.183 156.561 163.116 156.561 164.925 158.37Z" fill="#202020"/>
<path d="M146.91 103.387C148.719 101.578 148.719 98.6452 146.91 96.8362C145.101 95.0272 142.167 95.0272 140.358 96.8362C138.549 98.6453 138.549 101.578 140.358 103.387C142.167 105.196 145.101 105.196 146.91 103.387Z" fill="#202020"/>
<path d="M156.034 64.3145C157.843 66.1235 157.843 69.0566 156.034 70.8656C154.225 72.6747 151.292 72.6747 149.483 70.8656C147.674 69.0566 147.674 66.1235 149.483 64.3145C151.292 62.5054 154.225 62.5054 156.034 64.3145Z" fill="#202020"/>
<path d="M114.388 114.384C116.714 112.058 116.714 108.287 114.388 105.961C112.062 103.635 108.291 103.635 105.965 105.961C103.639 108.287 103.639 112.058 105.965 114.384C108.291 116.71 112.062 116.71 114.388 114.384Z" fill="#202020"/>
<path fill-rule="evenodd" clip-rule="evenodd" d="M85.1976 88.9376C84.6735 88.4134 84.4114 88.1513 84.3132 87.8491C84.2269 87.5833 84.2269 87.297 84.3132 87.0312C84.4114 86.729 84.6735 86.4669 85.1976 85.9428L85.9463 85.194C86.4705 84.6699 86.7326 84.4078 87.0348 84.3096C87.3006 84.2233 87.5869 84.2233 87.8527 84.3096C88.1549 84.4078 88.417 84.6699 88.9411 85.194L93.0939 89.3468C94.9349 91.1878 95.8554 92.1083 96.6481 92.5541L96.7601 92.6171C97.2349 92.8844 97.4725 93.0182 97.7259 93.105C97.9794 93.1919 98.2489 93.232 98.7879 93.3122L98.9152 93.3311C99.8146 93.4653 102.522 93.1251 107.936 92.4448C113.224 91.7804 118.751 93.4782 122.811 97.5381C125.075 99.8026 128.117 101.482 131.276 100.957L133.53 100.582C133.893 100.522 134.075 100.492 134.236 100.504C134.668 100.538 135.056 100.781 135.275 101.155C135.357 101.294 135.409 101.471 135.514 101.825L136.042 103.612C136.228 104.243 136.321 104.559 136.289 104.831C136.258 105.086 136.175 105.285 136.017 105.487C135.848 105.703 135.529 105.876 134.892 106.224C126.327 110.891 124.636 119.953 135.913 131.23L156.004 152.194C156.507 152.719 156.758 152.981 156.851 153.281C156.932 153.544 156.929 153.826 156.842 154.088C156.743 154.385 156.486 154.642 155.972 155.157L155.16 155.968C154.646 156.482 154.389 156.74 154.092 156.838C153.83 156.925 153.548 156.928 153.284 156.847C152.985 156.754 152.723 156.503 152.198 156L131.168 135.844C119.891 124.654 110.877 126.334 106.227 134.886C105.88 135.524 105.706 135.843 105.49 136.012C105.288 136.171 105.089 136.254 104.833 136.285C104.562 136.318 104.246 136.224 103.614 136.038L101.828 135.51C101.474 135.405 101.297 135.353 101.158 135.272C100.784 135.053 100.541 134.665 100.508 134.233C100.495 134.072 100.525 133.89 100.586 133.526L100.96 131.272C101.485 128.113 99.8064 125.071 97.5421 122.807C93.4822 118.747 91.7845 113.22 92.4487 107.933C93.129 102.518 93.4691 99.8111 93.3349 98.9117L93.316 98.7845C93.2358 98.2455 93.1957 97.976 93.1088 97.7225C93.0219 97.469 92.8882 97.2315 92.6208 96.7566L92.5578 96.6446C92.1121 95.852 91.1916 94.9315 89.3506 93.0905L85.1976 88.9376ZM102.213 102.225C97.8274 106.619 97.8299 113.737 102.221 118.128C102.929 118.836 103.709 119.43 104.536 119.91C106.107 120.822 107.852 121.321 109.614 121.409C112.677 121.561 115.791 120.467 118.131 118.128C120.471 115.788 121.564 112.674 121.412 109.61C121.324 107.849 120.825 106.104 119.913 104.533C119.433 103.705 118.839 102.926 118.131 102.218C113.74 97.827 106.622 97.8245 102.228 102.21L102.213 102.225Z" fill="#202020"/>
<path d="M91.9849 146.423C92.1948 147.134 92.2998 147.489 92.2417 147.802C92.1906 148.077 92.0539 148.328 91.8511 148.52C91.6205 148.739 91.2652 148.844 90.5546 149.054L78.422 152.643C77.7109 152.853 77.3554 152.958 77.0429 152.9C76.768 152.849 76.5164 152.712 76.3241 152.509C76.1054 152.278 76.0004 151.923 75.7904 151.212L75.4905 150.196C75.2807 149.486 75.1758 149.13 75.2339 148.818C75.285 148.543 75.4217 148.292 75.6245 148.1C75.8551 147.881 76.2103 147.776 76.9209 147.566L89.0534 143.977C89.7644 143.767 90.1199 143.662 90.4323 143.72C90.7072 143.771 90.9588 143.908 91.1511 144.111C91.3698 144.341 91.4748 144.697 91.6849 145.408L91.9849 146.423Z" fill="#202020"/>
<path d="M152.513 76.3205C152.282 76.1018 151.926 75.9968 151.215 75.7868L150.2 75.4869C149.489 75.2771 149.134 75.1721 148.822 75.2302C148.547 75.2814 148.295 75.4181 148.103 75.6209C147.885 75.8514 147.779 76.2067 147.569 76.9172L143.981 89.0497C143.771 89.7608 143.665 90.1163 143.723 90.4287C143.775 90.7036 143.911 90.9552 144.114 91.1475C144.345 91.3661 144.7 91.4712 145.412 91.6813L146.427 91.9812C147.138 92.1912 147.493 92.2962 147.805 92.2381C148.08 92.187 148.332 92.0502 148.524 91.8474C148.742 91.6169 148.847 91.2616 149.058 90.551L152.646 78.4184C152.856 77.7073 152.962 77.3518 152.904 77.0393C152.852 76.7644 152.716 76.5128 152.513 76.3205Z" fill="#202020"/>
</g>
<defs>
<clipPath id="clip0_600_133">
<rect width="240" height="240" fill="white"/>
</clipPath>
</defs>
</svg>
