<svg width="48" height="48" viewBox="0 0 48 48" fill="none" xmlns="http://www.w3.org/2000/svg">
  <path
    d="M48 24C48 37.2548 37.2548 48 24 48C10.7452 48 0 37.2548 0 24C0 10.7452 10.7452 0 24 0C37.2548 0 48 10.7452 48 24Z"
    fill="#01FF66" />
  <path
    d="M14.2677 14.2653C14.7501 13.7829 14.7501 13.0007 14.2677 12.5183C13.7853 12.0359 13.0032 12.0359 12.5208 12.5183C12.0383 13.0007 12.0383 13.7829 12.5208 14.2653C13.0032 14.7477 13.7853 14.7477 14.2677 14.2653Z"
    fill="#202020" />
  <path
    d="M10.8986 31.8598C11.381 32.3422 11.381 33.1243 10.8986 33.6067C10.4162 34.0891 9.63402 34.0891 9.1516 33.6067C8.66919 33.1243 8.66919 32.3422 9.1516 31.8598C9.63402 31.3774 10.4162 31.3774 10.8986 31.8598Z"
    fill="#202020" />
  <path
    d="M19.571 31.1735C20.0534 30.691 20.0534 29.9089 19.571 29.4265C19.0886 28.9441 18.3065 28.9441 17.8241 29.4265C17.3416 29.9089 17.3416 30.691 17.8241 31.1735C18.3065 31.6559 19.0886 31.6559 19.571 31.1735Z"
    fill="#202020" />
  <path
    d="M35.9801 34.2307C36.4625 34.7131 36.4625 35.4952 35.9801 35.9776C35.4977 36.46 34.7155 36.46 34.2331 35.9776C33.7507 35.4952 33.7507 34.7131 34.2331 34.2307C34.7155 33.7482 35.4976 33.7482 35.9801 34.2307Z"
    fill="#202020" />
  <path
    d="M31.1759 19.5686C31.6583 19.0862 31.6583 18.304 31.1759 17.8216C30.6935 17.3392 29.9113 17.3392 29.4289 17.8216C28.9465 18.304 28.9465 19.0862 29.4289 19.5686C29.9113 20.051 30.6935 20.051 31.1759 19.5686Z"
    fill="#202020" />
  <path
    d="M33.6092 9.14916C34.0916 9.63157 34.0916 10.4137 33.6092 10.8961C33.1268 11.3785 32.3446 11.3785 31.8622 10.8961C31.3798 10.4137 31.3798 9.63158 31.8622 9.14916C32.3446 8.66675 33.1268 8.66675 33.6092 9.14916Z"
    fill="#202020" />
  <path
    d="M22.5034 22.501C23.1237 21.8808 23.1237 20.8751 22.5034 20.2549C21.8832 19.6347 20.8776 19.6347 20.2573 20.2549C19.6371 20.8751 19.6371 21.8808 20.2573 22.501C20.8776 23.1212 21.8832 23.1212 22.5034 22.501Z"
    fill="#202020" />
  <path fill-rule="evenodd" clip-rule="evenodd"
    d="M14.7194 15.7153C14.5796 15.5755 14.5097 15.5057 14.4835 15.4251C14.4605 15.3542 14.4605 15.2778 14.4835 15.2069C14.5097 15.1264 14.5796 15.0565 14.7194 14.9167L14.919 14.717C15.0588 14.5773 15.1287 14.5074 15.2093 14.4812C15.2802 14.4582 15.3565 14.4582 15.4274 14.4812C15.508 14.5074 15.5779 14.5773 15.7177 14.717L16.825 15.8244C17.316 16.3154 17.5615 16.5609 17.7728 16.6797L17.8027 16.6965C17.9293 16.7678 17.9927 16.8035 18.0603 16.8266C18.1279 16.8498 18.1997 16.8605 18.3435 16.8819L18.3774 16.8869C18.6172 16.9227 19.3392 16.832 20.7831 16.6506C22.193 16.4734 23.6669 16.9262 24.7495 18.0088C25.3534 18.6127 26.1646 19.0604 27.007 18.9204L27.6079 18.8206C27.7049 18.8045 27.7534 18.7964 27.7963 18.7997C27.9115 18.8087 28.015 18.8735 28.0734 18.9732C28.0952 19.0104 28.1091 19.0575 28.137 19.1519L28.2778 19.6285C28.3275 19.7968 28.3524 19.881 28.3436 19.9534C28.3354 20.0214 28.3134 20.0746 28.2712 20.1286C28.2262 20.186 28.1412 20.2323 27.9711 20.325C25.6873 21.5696 25.2364 23.9861 28.2435 26.9932L33.6009 32.5837C33.7351 32.7237 33.8022 32.7937 33.8268 32.8735C33.8485 32.9438 33.8477 33.019 33.8245 33.0888C33.7982 33.1681 33.7296 33.2366 33.5925 33.3737L33.3761 33.5902C33.239 33.7273 33.1704 33.7958 33.0911 33.8222C33.0214 33.8453 32.9461 33.8461 32.8759 33.8244C32.796 33.7998 32.726 33.7327 32.586 33.5985L26.9781 28.2236C23.971 25.2398 21.5673 25.6876 20.3271 27.9682C20.2345 28.1384 20.1883 28.2236 20.1308 28.2686C20.0768 28.3109 20.0236 28.3329 19.9556 28.3412C19.8831 28.35 19.7989 28.3251 19.6304 28.2753L19.1542 28.1346C19.0599 28.1068 19.0127 28.0928 18.9755 28.0711C18.8759 28.0127 18.8111 27.9092 18.8021 27.794C18.7987 27.7511 18.8068 27.7026 18.8229 27.6055L18.9228 27.0044C19.0628 26.1621 18.615 25.3509 18.0112 24.7471C16.9286 23.6645 16.4759 22.1906 16.653 20.7807C16.8344 19.3368 16.9251 18.6149 16.8893 18.3751L16.8843 18.3412C16.8629 18.1974 16.8522 18.1256 16.829 18.058C16.8059 17.9904 16.7702 17.927 16.6989 17.8004L16.6821 17.7705C16.5632 17.5592 16.3178 17.3137 15.8268 16.8228L14.7194 15.7153ZM19.2569 19.2588C18.0873 20.4305 18.088 22.3285 19.2589 23.4994C19.4478 23.6883 19.6556 23.8467 19.8763 23.9747C20.2953 24.2178 20.7606 24.351 21.2303 24.3743C22.0472 24.4149 22.8776 24.1233 23.5015 23.4994C24.1255 22.8754 24.4171 22.045 24.3765 21.228C24.3531 20.7583 24.2199 20.293 23.9768 19.874C23.8488 19.6534 23.6904 19.4456 23.5015 19.2567C22.3306 18.0858 20.4327 18.0852 19.2609 19.2547L19.2569 19.2588Z"
    fill="#202020" />
  <path
    d="M16.5293 31.0449C16.5853 31.2344 16.6133 31.3291 16.5978 31.4124C16.5842 31.4857 16.5477 31.5528 16.4936 31.604C16.4322 31.6623 16.3374 31.6903 16.1479 31.7464L12.9125 32.7033C12.7229 32.7594 12.6281 32.7875 12.5448 32.772C12.4715 32.7583 12.4044 32.7219 12.3531 32.6677C12.2948 32.6062 12.2668 32.5114 12.2108 32.3217L12.1308 32.051C12.0749 31.8615 12.0469 31.7667 12.0624 31.6834C12.076 31.6102 12.1125 31.5431 12.1666 31.4918C12.228 31.4336 12.3228 31.4055 12.5122 31.3495L15.7476 30.3926C15.9372 30.3365 16.032 30.3085 16.1153 30.3239C16.1886 30.3376 16.2557 30.374 16.307 30.4282C16.3653 30.4897 16.3933 30.5845 16.4493 30.7741L16.5293 31.0449Z"
    fill="#202020" />
  <path
    d="M32.6701 12.3508C32.6085 12.2925 32.5137 12.2645 32.3241 12.2084L32.0533 12.1285C31.8638 12.0725 31.769 12.0445 31.6858 12.06C31.6125 12.0737 31.5454 12.1101 31.4942 12.1642C31.4359 12.2257 31.4079 12.3204 31.3518 12.5099L30.3949 15.7452C30.3388 15.9348 30.3108 16.0296 30.3263 16.113C30.3399 16.1863 30.3764 16.2534 30.4305 16.3046C30.492 16.3629 30.5868 16.3909 30.7764 16.447L31.0472 16.527C31.2367 16.5829 31.3315 16.6109 31.4148 16.5955C31.488 16.5818 31.5551 16.5454 31.6064 16.4913C31.6646 16.4298 31.6927 16.3351 31.7487 16.1456L32.7057 12.9102C32.7617 12.7206 32.7898 12.6258 32.7743 12.5424C32.7607 12.4691 32.7242 12.402 32.6701 12.3508Z"
    fill="#202020" />
</svg>