<svg width="24" height="24" viewBox="0 0 24 24" fill="none" xmlns="http://www.w3.org/2000/svg">
  <path
    d="M9 9C9 8.44772 9.44772 8 10 8H14C14.5523 8 15 8.44772 15 9C15 9.55228 14.5523 10 14 10H10C9.44772 10 9 9.55228 9 9Z"
    fill="#01FF66" />
  <path
    d="M9 13C9 12.4477 9.44772 12 10 12H12C12.5523 12 13 12.4477 13 13C13 13.5523 12.5523 14 12 14H10C9.44772 14 9 13.5523 9 13Z"
    fill="#01FF66" />
  <path fill-rule="evenodd" clip-rule="evenodd"
    d="M5 3C3.34315 3 2 4.34315 2 6V7.75C2 8.44036 2.55964 9 3.25 9H5V19C5 20.6569 6.34315 22 8 22H18C19.6569 22 21 20.6569 21 19V17.25C21 16.5596 20.4404 16 19.75 16H19V6C19 4.34315 17.6569 3 16 3H5ZM17 16V6C17 5.44772 16.5523 5 16 5H7V19C7 19.5523 7.44772 20 8 20C8.55228 20 9 19.5523 9 19V17.25C9 16.5596 9.55964 16 10.25 16H17ZM10.8293 20H18C18.5523 20 19 19.5523 19 19V18H11V19C11 19.3506 10.9398 19.6872 10.8293 20ZM4 6C4 5.44772 4.44772 5 5 5V7H4V6Z"
    fill="#01FF66" />
</svg>