<svg width="24" height="24" viewBox="0 0 24 24" fill="none" xmlns="http://www.w3.org/2000/svg">
  <g opacity="0.7">
    <path fill-rule="evenodd" clip-rule="evenodd"
      d="M21 7.5C21 6.68589 20.6187 5.98914 20.0903 5.44258C19.5665 4.90083 18.8569 4.45864 18.0577 4.10897C16.4562 3.40832 14.3137 3 12 3C9.6863 3 7.54381 3.40832 5.94233 4.10897C5.14307 4.45864 4.43348 4.90083 3.90973 5.44258C3.38133 5.98914 3 6.68589 3 7.5V17.5C3 18.3141 3.38133 19.0109 3.90973 19.5574C4.43348 20.0992 5.14307 20.5414 5.94233 20.891C7.54381 21.5917 9.6863 22 12 22C14.3137 22 16.4562 21.5917 18.0577 20.891C18.8569 20.5414 19.5665 20.0992 20.0903 19.5574C20.6187 19.0109 21 18.3141 21 17.5V7.5ZM5.34763 6.8327C5.06638 7.12362 5 7.34762 5 7.5C5 7.65238 5.06638 7.87638 5.34763 8.1673C5.63353 8.46302 6.09551 8.77502 6.74396 9.05872C8.03791 9.62482 9.89543 10 12 10C14.1046 10 15.9621 9.62482 17.256 9.05872C17.9045 8.77502 18.3665 8.46302 18.6524 8.1673C18.9336 7.87638 19 7.65238 19 7.5C19 7.34762 18.9336 7.12362 18.6524 6.8327C18.3665 6.53698 17.9045 6.22498 17.256 5.94128C15.9621 5.37518 14.1046 5 12 5C9.89543 5 8.03791 5.37518 6.74396 5.94128C6.09551 6.22498 5.63353 6.53698 5.34763 6.8327ZM19 10.4071C18.7059 10.5847 18.3895 10.7458 18.0577 10.891C16.4562 11.5917 14.3137 12 12 12C9.6863 12 7.54381 11.5917 5.94233 10.891C5.61046 10.7458 5.29406 10.5847 5 10.4071V12.5C5 12.6524 5.06638 12.8764 5.34763 13.1673C5.63353 13.463 6.09551 13.775 6.74396 14.0587C8.03791 14.6248 9.89543 15 12 15C14.1046 15 15.9621 14.6248 17.256 14.0587C17.9045 13.775 18.3665 13.463 18.6524 13.1673C18.9336 12.8764 19 12.6524 19 12.5V10.4071ZM19 15.4071C18.7059 15.5847 18.3895 15.7458 18.0577 15.891C16.4562 16.5917 14.3137 17 12 17C9.6863 17 7.54381 16.5917 5.94233 15.891C5.61046 15.7458 5.29406 15.5847 5 15.4071V17.5C5 17.6524 5.06638 17.8764 5.34763 18.1673C5.63353 18.463 6.09551 18.775 6.74396 19.0587C8.03791 19.6248 9.89543 20 12 20C14.1046 20 15.9621 19.6248 17.256 19.0587C17.9045 18.775 18.3665 18.463 18.6524 18.1673C18.9336 17.8764 19 17.6524 19 17.5V15.4071Z"
      fill="white" />
  </g>
</svg>