<svg width="27" height="27" viewBox="0 0 27 27" fill="none" xmlns="http://www.w3.org/2000/svg">
<path d="M13.3333 26.8332C20.6971 26.8332 26.6667 20.8636 26.6667 13.4998C26.6667 6.13604 20.6971 0.166504 13.3333 0.166504C5.96954 0.166504 0 6.13604 0 13.4998C0 20.8636 5.96954 26.8332 13.3333 26.8332Z" fill="#133348"/>
<path d="M18.6387 12.1938C18.861 10.7929 17.7307 10.0397 16.1864 9.53706L16.6875 7.63888L15.4645 7.35148L14.9762 9.19953C14.6549 9.12334 14.3251 9.05249 13.996 8.98164L14.4878 7.12156L13.2649 6.8335L12.7638 8.731C12.4977 8.67352 12.2358 8.61738 11.9824 8.55723L11.9839 8.55121L10.2966 8.15353L9.97105 9.38734C9.97105 9.38734 10.8791 9.58384 10.86 9.59587C11.3554 9.71284 11.4446 10.0223 11.4297 10.2683L10.8593 12.4304C10.8932 12.4385 10.9371 12.4505 10.9867 12.4685L10.8571 12.4385L10.0574 15.4675C9.99653 15.6092 9.84295 15.8224 9.49616 15.7415C9.5089 15.7583 8.60724 15.5323 8.60724 15.5323L8 16.8544L9.59241 17.2293C9.88825 17.2995 10.1784 17.373 10.4636 17.4419L9.95761 19.3614L11.1799 19.6488L11.681 17.7507C12.015 17.8356 12.3391 17.9144 12.6562 17.9893L12.1566 19.8794L13.3795 20.1668L13.8856 18.2513C15.972 18.6242 17.5403 18.4738 18.2006 16.692C18.7329 15.2576 18.1745 14.4295 17.0768 13.8902C17.8765 13.7164 18.4781 13.2198 18.6387 12.1938ZM15.8432 15.8953C15.4659 17.3303 12.9075 16.5543 12.078 16.3598L12.7503 13.8166C13.5798 14.0125 16.2388 14.3995 15.8432 15.8953ZM16.2218 12.1731C15.8771 13.4784 13.7483 12.8147 13.0582 12.6523L13.6669 10.3465C14.3569 10.5089 16.5813 10.8116 16.2218 12.1731Z" fill="white"/>
</svg>
