<svg width="177" height="177" viewBox="0 0 177 177" fill="none" xmlns="http://www.w3.org/2000/svg">
<path d="M174.01 109.92C162.233 157.16 114.387 185.909 67.1417 174.129C19.9159 162.351 -8.83353 114.503 2.9495 67.266C14.7215 20.0209 62.5674 -8.73128 109.799 3.04624C157.041 14.8238 185.788 62.6779 174.01 109.92Z" fill="url(#paint0_linear_35_99)"/>
<path d="M127.344 76.0268C129.099 64.2934 120.165 57.9858 107.95 53.778L111.912 37.8835L102.237 35.4724L98.3794 50.9479C95.836 50.3141 93.2236 49.7162 90.6278 49.1237L94.5133 33.5462L84.8438 31.135L80.8784 47.0239C78.7732 46.5444 76.7064 46.0705 74.7003 45.5717L74.7114 45.5221L61.3687 42.1906L58.7949 52.5241C58.7949 52.5241 65.9733 54.1692 65.8217 54.2712C69.7402 55.2494 70.4484 57.8425 70.3299 59.8982L65.8162 78.0054C66.0863 78.0742 66.4362 78.1735 66.822 78.3278C66.4996 78.2479 66.1552 78.1597 65.7997 78.0743L59.4728 103.44C58.9933 104.63 57.7781 106.416 55.039 105.738C55.1354 105.878 48.0066 103.983 48.0066 103.983L43.2036 115.057L55.794 118.196C58.1363 118.783 60.4317 119.398 62.6913 119.976L58.6874 136.053L68.3514 138.464L72.3167 122.558C74.9566 123.275 77.5193 123.936 80.0269 124.559L76.0754 140.39L85.7504 142.801L89.7543 126.755C106.252 129.877 118.658 128.618 123.88 113.696C128.088 101.682 123.67 94.7513 114.99 90.2321C121.312 88.7743 126.073 84.6161 127.344 76.0268ZM105.238 107.025C102.248 119.039 82.0193 112.544 75.4609 110.916L80.7737 89.6176C87.3321 91.2544 108.363 94.495 105.238 107.025ZM108.231 75.8532C105.503 86.782 88.6658 81.2294 83.2042 79.8682L88.021 60.5513C93.4826 61.9125 111.072 64.4532 108.231 75.8532Z" fill="white"/>
<defs>
<linearGradient id="paint0_linear_35_99" x1="-16.4707" y1="18.8286" x2="176.649" y2="120.622" gradientUnits="userSpaceOnUse">
<stop stop-color="#C26BFF"/>
<stop offset="1" stop-color="#9600FF"/>
</linearGradient>
</defs>
</svg>
