<svg width="24" height="24" viewBox="0 0 24 24" fill="none" xmlns="http://www.w3.org/2000/svg">
<g clip-path="url(#clip0_1_5)">
<path d="M12.48 0.480003H11.52C5.15768 0.480003 0 5.63768 0 12C0 18.3623 5.15768 23.52 11.52 23.52H12.48C18.8423 23.52 24 18.3623 24 12C24 5.63768 18.8423 0.480003 12.48 0.480003Z" fill="#4473F0" fill-opacity="0.5"/>
<path d="M11.185 16.2048L10.0234 15.911L9.5952 17.6006L10.7568 17.8954L11.185 16.2048Z" fill="#664AED"/>
<path d="M13.2 16.7136L12.0384 16.4198L11.6093 18.1094L12.7718 18.4042L13.2 16.7136ZM15.7728 6.57024L14.6093 6.27552L14.1811 7.96512L15.3437 8.25984L15.7728 6.57024Z" fill="#146AF4"/>
<path d="M13.7597 6.05472L12.5981 5.76L12.1699 7.4496L13.3315 7.74432L13.7597 6.05472Z" fill="#664AED"/>
<path d="M13.8576 16.4189L8.16 15.1171L8.50176 13.8979L14.1994 15.1987C14.689 15.312 15.1776 15.0672 15.289 14.6582C15.4003 14.2493 15.1008 13.8278 14.6122 13.7155L11.0506 12.9043L11.3933 11.6842L14.9539 12.4954C16.2384 12.791 17.0419 13.9094 16.7347 14.9856C16.4275 16.0618 15.1354 16.7078 13.8509 16.4122L13.8576 16.4189Z" fill="#B9B9FC"/>
<path d="M13.3325 7.74912L11.3712 7.2528L9.22752 15.7171L11.1888 16.2144L13.3325 7.74912Z" fill="#664AED"/>
<path d="M13.6435 12.5702L9.82367 11.6582L10.1914 10.2854L14.0112 11.1984C14.5354 11.3261 15.0595 11.0496 15.1795 10.5907C15.2995 10.1299 14.9779 9.65664 14.4528 9.52896L9.12 8.256L9.48672 6.8832L14.8195 8.15712C16.1981 8.48928 17.0592 9.7488 16.7299 10.9584C16.4006 12.168 15.0144 12.8957 13.6368 12.5635L13.6435 12.5702Z" fill="#9FF7EC"/>
<path d="M13.3325 7.74528L11.3712 7.24896L10.9613 8.86752L12.9226 9.36384L13.3325 7.74528Z" fill="#664AED"/>
</g>
<defs>
<clipPath id="clip0_1_5">
<rect width="24" height="24" fill="white"/>
</clipPath>
</defs>
</svg>
