<svg width="24" height="24" viewBox="0 0 24 24" fill="none" xmlns="http://www.w3.org/2000/svg">
<path d="M11.8626 0.137507C5.31142 0.213446 0.0616771 5.58633 0.137616 12.1375C0.213556 18.6887 5.58667 23.9384 12.1376 23.8625C18.6886 23.7866 23.9386 18.4151 23.8626 11.8625C23.7866 5.30989 18.4145 0.0615589 11.8626 0.137507Z" fill="#53AE94"/>
<path d="M10.2862 10.4364L10.2657 8.67174L6.23032 8.71852L6.19915 6.02977L17.1876 5.90239L17.2188 8.59115L13.1829 8.63793L13.2034 10.4012C16.4851 10.5138 18.9588 11.1348 18.9679 11.913C18.9769 12.6912 16.517 13.3694 13.24 13.559L13.3055 19.2114L10.3873 19.2453L10.3218 13.5923C7.04599 13.4791 4.57724 12.8586 4.56822 12.0811C4.55921 11.3036 7.01292 10.626 10.2852 10.4369M10.3162 13.1135L10.3162 13.1121C10.3986 13.1164 10.8219 13.1369 11.7638 13.126C12.5168 13.1172 13.0464 13.0897 13.233 13.0778L13.233 13.0802C16.1293 12.9183 18.2864 12.3886 18.2794 11.7848C18.2724 11.181 16.1034 10.7021 13.2043 10.6071L13.2272 12.5775C13.0375 12.5927 12.4951 12.631 11.7458 12.6397C10.8459 12.6502 10.3931 12.6179 10.3099 12.6113L10.2871 10.6409C7.39652 10.8033 5.24435 11.3334 5.25133 11.9351C5.2583 12.5367 7.42313 13.0171 10.3158 13.1124" fill="#F5F5F5"/>
</svg>
