<svg width="50" height="49" viewBox="0 0 50 49" fill="none" xmlns="http://www.w3.org/2000/svg">
<path d="M48.6784 24.5004C48.6784 37.4901 38.1482 48.0204 25.1584 48.0204C12.1687 48.0204 1.63843 37.4901 1.63843 24.5004C1.63843 11.5106 12.1687 0.980347 25.1584 0.980347C38.1482 0.980347 48.6784 11.5106 48.6784 24.5004Z" fill="#FFB852"/>
<path fill-rule="evenodd" clip-rule="evenodd" d="M49.6584 24.5004C49.6584 38.0314 38.6894 49.0004 25.1584 49.0004C11.6275 49.0004 0.658447 38.0314 0.658447 24.5004C0.658447 10.9694 11.6275 0.000366211 25.1584 0.000366211C38.6894 0.000366211 49.6584 10.9694 49.6584 24.5004ZM25.1584 48.0204C38.1482 48.0204 48.6784 37.4901 48.6784 24.5004C48.6784 11.5107 38.1482 0.980366 25.1584 0.980366C12.1687 0.980366 1.63845 11.5107 1.63845 24.5004C1.63845 37.4901 12.1687 48.0204 25.1584 48.0204Z" fill="black"/>
<path d="M16.7929 31.3084C16.7959 31.4649 16.7982 31.5564 16.582 31.5589L13.7809 31.5869L13.8123 34.1274L18.6946 34.0745L18.7404 37.7664L21.1677 37.7375L21.1219 34.0457L22.6308 34.0298L22.6752 37.7166L24.9842 37.6917L24.9435 33.9985L26.6801 33.9826C27.8365 33.9669 31.9651 32.9391 31.9101 29.1086C31.9426 28.0721 31.6235 27.055 31.0046 26.2228C30.3858 25.3906 29.5037 24.7922 28.5016 24.5249C28.5016 24.5249 30.8353 23.0835 30.5814 20.6664C30.3275 18.2493 28.4255 17.5927 27.3311 17.2451C26.4809 17.0121 25.6068 16.8773 24.7259 16.8433L24.6795 12.9835L22.461 13.0227L22.5122 16.8595L20.7286 16.8823L20.6937 13.025L18.4498 13.0708L18.4948 16.9255L13.7916 16.9815L13.8123 19.2536L16.391 19.2231C16.6505 19.2201 16.652 19.3499 16.653 19.4364L16.7929 31.3084ZM20.7482 19.1711L23.4898 19.1412C23.9605 19.1371 26.2523 19.5017 26.263 21.4458C26.2808 21.9786 26.1072 22.5003 25.7734 22.9161C25.4396 23.3319 24.9679 23.6143 24.4438 23.7121C24.2339 23.7667 24.019 23.7994 23.8024 23.8097L20.7796 23.8428L20.7482 19.1711ZM20.8656 26.2605L25.1504 26.2221C25.4606 26.2242 25.7671 26.2896 26.0511 26.4141C26.3352 26.5387 26.5908 26.7199 26.8025 26.9466C27.0142 27.1733 27.1774 27.4408 27.2822 27.7327C27.3871 28.0246 27.4313 28.3348 27.4122 28.6444C27.4323 30.1901 26.0902 30.8835 25.3849 31.0683C25.2816 31.0988 25.1749 31.1158 25.0674 31.119L20.9328 31.1723L20.8656 26.2605Z" fill="#FFE3BD"/>
<path fill-rule="evenodd" clip-rule="evenodd" d="M15.8042 30.5866L12.7888 30.6167L12.8444 35.1179L17.7268 35.0651L17.7725 38.7579L22.1597 38.7058L22.1596 38.7022L25.9749 38.661L25.9342 34.9695L26.689 34.9625H26.6934C27.4423 34.9523 28.9416 34.6441 30.2721 33.8051C31.6434 32.9403 32.9155 31.4485 32.8903 29.1168C32.9243 27.867 32.5373 26.6417 31.791 25.638C31.3774 25.0819 30.867 24.6118 30.2886 24.2475C30.3224 24.209 30.3561 24.1696 30.3897 24.1292C31.0388 23.3498 31.7204 22.1297 31.556 20.564C31.3995 19.0743 30.715 18.0725 29.8796 17.4112C29.0816 16.7796 28.1766 16.4854 27.6278 16.3111L27.609 16.3051L27.5901 16.2999C26.9683 16.1295 26.3347 16.0075 25.695 15.9348L25.6475 11.9863L21.6649 12.0566L21.6646 12.0249L17.4585 12.1108L17.5034 15.9572L12.8027 16.0131L12.8412 20.2452L15.682 20.2116L15.8042 30.5866ZM18.4948 16.9255L13.7915 16.9815L13.8122 19.2536L16.3909 19.2231C16.6505 19.2201 16.6519 19.3499 16.6529 19.4364L16.7928 31.3084V31.3095C16.7959 31.4653 16.7976 31.5564 16.5819 31.5589L13.7809 31.5869L13.8123 34.1274L18.6946 34.0745L18.7403 37.7664L21.1675 37.7375L21.1219 34.0457L22.6307 34.0298L22.6751 37.7166L24.9842 37.6917L24.9435 33.9985L26.6801 33.9826C27.8365 33.9669 31.965 32.939 31.9101 29.1086C31.9425 28.0721 31.6234 27.055 31.0046 26.2228C30.6158 25.7 30.1232 25.2695 29.5621 24.9553C29.2301 24.7694 28.8741 24.6243 28.5016 24.5249C28.5016 24.5249 28.9193 24.2669 29.3821 23.7861C30.0131 23.1306 30.7278 22.0609 30.5813 20.6664C30.3274 18.2493 28.4254 17.5927 27.3311 17.2451C26.4808 17.0121 25.6067 16.8773 24.7258 16.8433L24.6795 12.9835L22.4609 13.0227L22.5121 16.8595L20.7285 16.8823L20.6936 13.025L18.4497 13.0708L18.4948 16.9255ZM26.2629 21.4458C26.2523 19.5017 23.9605 19.1371 23.4897 19.1412L20.7482 19.1711L20.7796 23.8428L23.8023 23.8097C24.0189 23.7994 24.2339 23.7667 24.4437 23.7121C24.9679 23.6143 25.4396 23.3319 25.7733 22.9161C26.1071 22.5003 26.2808 21.9786 26.2629 21.4458ZM23.7718 22.83C23.9155 22.8221 24.058 22.7998 24.1972 22.7636L24.2303 22.755L24.2639 22.7487C24.5577 22.6939 24.822 22.5357 25.0091 22.3026C25.1961 22.0696 25.2935 21.7773 25.2835 21.4786L25.283 21.4649L25.2829 21.4511C25.2802 20.9588 25.0251 20.6581 24.592 20.4299C24.369 20.3124 24.123 20.2319 23.9027 20.1818C23.7944 20.1571 23.6985 20.1413 23.6229 20.1319C23.5852 20.1272 23.5544 20.1244 23.5314 20.1228C23.5106 20.1214 23.4999 20.1212 23.4983 20.1212C23.498 20.1212 23.498 20.1212 23.4983 20.1212L21.7347 20.1404L21.7529 22.8521L23.7718 22.83ZM27.4121 28.6444C27.4312 28.3348 27.387 28.0246 27.2822 27.7327C27.1774 27.4408 27.0141 27.1733 26.8025 26.9466C26.5908 26.7199 26.3351 26.5387 26.0511 26.4141C25.767 26.2896 25.4605 26.2242 25.1504 26.2221L20.8655 26.2605L20.9328 31.1718L25.0673 31.119C25.1749 31.1158 25.2816 31.0988 25.3848 31.0683C26.0901 30.8835 27.4322 30.1901 27.4121 28.6444ZM25.0434 30.1392C25.0651 30.1382 25.0867 30.1345 25.1075 30.1284L25.1219 30.1242L25.1364 30.1204C25.3716 30.0587 25.7279 29.9036 26.005 29.6473C26.259 29.4123 26.4381 29.1062 26.4322 28.6571L26.4318 28.6206L26.434 28.5841C26.4449 28.4074 26.4197 28.2304 26.3599 28.0639C26.3001 27.8974 26.2069 27.7447 26.0862 27.6154C25.9654 27.4861 25.8195 27.3827 25.6575 27.3116C25.4975 27.2415 25.325 27.2042 25.1503 27.2021L21.8589 27.2317L21.8993 30.1798L25.0434 30.1392Z" fill="black"/>
<path d="M23.6849 5.18039C27.5089 4.88875 31.3296 5.73863 34.665 7.61667L34.092 8.57674C30.9548 6.81671 27.3639 6.02074 23.7699 6.29484C20.0129 6.58137 16.4365 8.02322 13.5313 10.4227C10.6261 12.8221 8.53437 16.0615 7.54299 19.6967C6.55162 23.3319 6.70916 27.1848 7.99401 30.7269C9.27886 34.269 11.6281 37.3268 14.7195 39.4811C17.8109 41.6353 21.493 42.7803 25.2609 42.7592C29.0288 42.738 32.6979 41.5517 35.7649 39.3629C38.6988 37.2691 40.9443 34.356 42.2235 30.994L43.2788 31.3634C41.9231 34.9431 39.5358 38.0448 36.4141 40.2726C33.1594 42.5954 29.2657 43.8544 25.2672 43.8768C21.2687 43.8993 17.3611 42.6841 14.0805 40.3981C10.7999 38.112 8.30681 34.8669 6.94331 31.108C5.57981 27.3491 5.41262 23.2603 6.46469 19.4026C7.51675 15.5449 9.73653 12.1072 12.8196 9.56086C15.9026 7.01457 19.6979 5.48446 23.6849 5.18039Z" fill="black"/>
<path d="M43.6981 25.2142H36.0942V23.1356L38.5993 20.595C39.4876 19.683 40.1035 18.9842 40.4469 18.4986C40.8023 18.013 40.9799 17.4978 40.9799 16.953C40.9799 16.3963 40.8319 16.0054 40.5358 15.7804C40.2515 15.5554 39.8429 15.4429 39.3099 15.4429C38.5163 15.4429 37.6517 15.5139 36.7161 15.656L36.2897 15.7093L36.1653 13.8084C37.326 13.4531 38.5282 13.2754 39.7718 13.2754C42.2591 13.2754 43.5027 14.3947 43.5027 16.6332C43.5027 17.5096 43.3132 18.2677 42.9342 18.9072C42.5552 19.5468 41.8682 20.3226 40.8733 21.2346L38.8302 23.0823H43.6981V25.2142Z" fill="#FFDFB6"/>
<path fill-rule="evenodd" clip-rule="evenodd" d="M44.6781 26.1942H35.1143V22.7337L37.8973 19.9113L37.8994 19.9091C38.7815 19.0033 39.3508 18.3513 39.6469 17.9327L39.6514 17.9263L39.6561 17.9199C39.902 17.5838 39.9999 17.268 39.9999 16.953C39.9999 16.7562 39.9731 16.644 39.9524 16.5895C39.9456 16.5714 39.9402 16.5613 39.9371 16.5564L39.9351 16.5548L39.9275 16.5488C39.8812 16.5122 39.7222 16.4229 39.3099 16.4229C38.5739 16.4229 37.7592 16.4889 36.8632 16.625L36.8505 16.6269L35.3796 16.8107L35.1368 13.0984L35.8785 12.8713C37.1344 12.4868 38.4334 12.2954 39.7718 12.2954C41.1425 12.2954 42.3535 12.6016 43.2256 13.3864C44.1173 14.1889 44.4827 15.3346 44.4827 16.6332C44.4827 17.6537 44.2608 18.5909 43.7773 19.4069C43.3246 20.1708 42.5536 21.0238 41.5355 21.957L41.5307 21.9615L41.375 22.1023H44.6781V26.1942ZM38.8302 23.0823L40.8733 21.2346C41.8682 20.3226 42.5552 19.5468 42.9342 18.9073C43.3132 18.2677 43.5027 17.5097 43.5027 16.6332C43.5027 14.3947 42.2591 13.2754 39.7718 13.2754C38.5282 13.2754 37.326 13.4531 36.1653 13.8084L36.2897 15.7094L36.7161 15.6561C36.9013 15.6279 37.0837 15.6026 37.2633 15.58C37.9912 15.4886 38.6734 15.4429 39.3099 15.4429C39.8429 15.4429 40.2515 15.5554 40.5358 15.7804C40.8319 16.0055 40.9799 16.3963 40.9799 16.953C40.9799 17.4978 40.8023 18.013 40.447 18.4986C40.1035 18.9842 39.4876 19.683 38.5993 20.595L36.0943 23.1356V25.2142H43.6981V23.0823H38.8302Z" fill="black"/>
</svg>
