<?xml version="1.0" encoding="utf-8"?>
<!-- Generator: Adobe Illustrator 25.4.1, SVG Export Plug-In . SVG Version: 6.00 Build 0)  -->
<svg version="1.0" id="katman_1" xmlns="http://www.w3.org/2000/svg" xmlns:xlink="http://www.w3.org/1999/xlink" x="0px" y="0px"
	 viewBox="0 0 841.9 595.3" style="enable-background:new 0 0 841.9 595.3;" xml:space="preserve">
<style type="text/css">
	.st0{fill-rule:evenodd;clip-rule:evenodd;fill:#31A4DE;}
</style>
<g id="partners_x2F_animocabrands_x5F_logo">
	<g id="Commonly_x2F_AnimocaBrands" transform="translate(38.130183, 9.183435)">
		<path id="Fill-1" class="st0" d="M245.6,121.9c0,0.7,0,1.4,0,2.1c0,5.6,1.8,7,7.4,6.2c3-0.5,6.1-0.7,9.2-0.9
			c10.6-0.9,11-1.2,10.7-12c0-0.5,0-0.9,0-1.4c-0.3-3.1-1.8-4.9-5.1-4.6c-5.8,0.5-11.6,0.8-17.4,1.5c-3,0.4-4.9,2.4-4.8,5.7
			C245.6,119.6,245.6,120.8,245.6,121.9L245.6,121.9z M329.5,259.7c-4.5,12.8-8.9,25.6-13.5,38.9c9.6-0.8,18.7-1.6,28.2-2.4
			c-4.7-12.5-9.3-24.6-13.8-36.6L329.5,259.7z M120.8,295.7c3.9-0.3,7.6-0.4,11.2-0.8c5.1-0.6,10.2-1.1,15.2-2.2
			c4.4-0.9,7.6-3.8,8.8-8.2c2.2-7.9,0.1-13.9-8.5-14.3c-8.9-0.4-17.8,0.5-26.8,0.8V295.7z M216.8,289.4c6.8-0.6,13.5-0.9,20-1.9
			c4.5-0.8,9.1-2.1,13.2-4.2c4.4-2.2,5.9-8.1,4.5-13.7c-1.1-4.3-5-7.8-9.8-7.8c-9.3,0.1-18.5,0.8-27.9,1.2V289.4z M150.7,308.8
			c-6.8-0.6-13.7,0.1-20.5,0.3c-3.1,0.1-6.3,0.5-9.4,0.8v27.4c7.7-0.6,15-0.9,22.3-1.9c4-0.6,8.1-1.9,11.6-3.7c5.6-3,6.7-8.5,6-14.3
			C160,312.4,157.1,309.3,150.7,308.8L150.7,308.8z M610.9,247.8c4.5,1.8,9.4,2.6,14.2,3.6c12,2.6,24.8,3.2,33.2,14.2v-32
			c-0.2,0-0.3,0-0.5-0.1c-0.6,1.7-1.2,3.5-2,5.2c-2.8,5.9-11.6,7.6-14.8,1c-0.8-1.5-1.5-3.2-2.6-4.4c-2.3-2.4-4.5-5.7-7.5-6.7
			c-7.9-2.7-15.7-1.4-22.2,4.1C603.1,237.6,604.1,245,610.9,247.8L610.9,247.8z M452,230.6c-14,1.2-28.6,2.5-43.5,3.8
			c14.1,20.1,27.9,39.9,41.7,59.7c0.3-0.1,0.5-0.1,0.8-0.2v-3.6c0-15.4-0.1-30.8,0-46.2C451.1,239.7,451.6,235.3,452,230.6
			L452,230.6z M269.8,148.5c-0.3-3.1-2.4-5.1-5.5-4.8c-3.4,0.3-6.8,0.6-10.2,1.2c-4,0.7-4.9,2-4.9,6c0,12.7,0,25.3,0,38
			c0,12.9,0,25.8,0,38.7c0,3.4,1.6,5.1,4.7,5c3.1-0.2,6.1-0.7,9.2-0.9c5.6-0.3,6.8-3.3,6.8-8.2c-0.1-24.2,0-48.3,0-72.5
			C269.8,150.1,269.8,149.3,269.8,148.5L269.8,148.5z M509.7,304.6c6.6-0.7,12.9-1.5,19.3-2c11.3-0.8,17.6-7.4,20.7-17.6
			c3.2-10.2,3.3-20.6,0.7-30.9c-2.6-10.4-9.2-15.3-19.9-15.2c-5.7,0-11.5,0.6-17.2,0.6c-3.1,0-3.9,1.1-3.8,4
			c0.1,19.2,0.1,38.4,0.1,57.6C509.5,302.3,509.6,303.3,509.7,304.6L509.7,304.6z M578,201.7c10.9,1.9,21.4-0.5,31.7-3.5
			c10.8-3.2,8.6-4.1,8.7-11.9c0.1-6-1.6-6.9-7.6-5.7c-7.8,1.6-15.7,3-23.6,3.8c-5.7,0.6-9.5-3.6-9.5-9.3c0-5.3,0-10.6,0-15.9
			c0-4.7,0.4-9.5-0.1-14.1c-0.7-7,5-13.4,13.3-13.2c7.3,0.2,14.7,0.1,22,0.2c3.8,0,5.4-1.6,5.5-5.4c0-2-0.1-3.9,0-5.9
			c0.2-3.2-1.2-4.9-4.3-5.5c-10.8-2.3-21.8-2.1-32.4,0.4c-14.5,3.4-24.4,15.4-24.7,29.2c-0.3,10.8-0.2,21.6,0,32.4
			C557.4,190.1,565.6,199.5,578,201.7L578,201.7z M154.6,234.8c0,5,1.8,6.6,6.8,6.3c2.3-0.2,4.6-0.5,6.8-0.7c5.1-0.3,7-2.1,7-7.2
			c0-17.6,0-35.2,0-52.8c0-6.1,4.3-11.2,9.9-11.8c4.2-0.4,8.4-0.9,12.6-1.3c6.8-0.7,11.3,3.3,11.3,10.1c0,2.8,0,5.5,0,8.3
			c0,14.8,0,29.7,0,44.5c0,4.8,2.3,6.6,7,6c2-0.3,4.1-0.4,6.2-0.6c5.6-0.5,7.8-2.5,7.6-7.9c-0.3-8.9-0.1-17.7-0.1-26.6
			c0-8.6,0-17.3,0-25.9c0-12.4-7.2-22.1-19.4-24.4c-11.9-2.3-23.9-1.2-35.2,2.9c-11.6,4.2-19.4,12.7-20.3,25.7
			c-0.6,9.7-0.3,19.5-0.4,29.3C154.5,217.3,154.5,226,154.6,234.8L154.6,234.8z M114.8,225.8c0,0.7-1.8,1.9-2.9,2
			c-6.6,0.7-13.3,1.2-19.9,1.6c-6,0.4-9.9-2.2-10.8-7.2c-0.9-5.3,2.3-10.7,7.7-12.2c2.8-0.8,5.9-0.8,8.8-1.2
			c2.8-0.3,5.7-0.6,8.6-0.9c2.7-0.2,5.5-0.3,8.7-0.5C114.9,213.7,115,219.8,114.8,225.8L114.8,225.8z M135.3,235.8
			c0-16.9,0-33.8,0-50.7c0-2.6,0-5.3-0.6-7.9c-2.7-11.1-12.8-19.3-24.3-18.9c-8.4,0.3-16.9,1.5-25.2,3c-7.6,1.4-8.2,2.7-8.2,10.4
			c0,0.9,0,1.8,0,2.8c0.2,4,1.8,5.2,5.7,4.6c6.8-1.1,13.6-1.6,20.3-3c7.5-1.6,13.8,5.1,11.3,13.7c-5.8,0.5-11.8,1.2-17.7,1.6
			c-9.6,0.6-18.4,2.8-26.1,9.1c-11.5,9.5-13.9,27-4.6,37.8c7.4,8.6,17.4,9.9,27.9,8.9c11.3-1,22.6-2.3,33.9-3.2
			C134,243.3,135.3,242.2,135.3,235.8L135.3,235.8z M684.3,175.9c-6.1,0.6-12,1.1-17.9,1.6c-2.5,0.2-5.1,0.8-7.5,0.5
			c-4.9-0.5-8.2-4.3-8.4-9c-0.2-4.5,3.9-10.1,8.5-10.7c8.3-1.1,16.6-1.7,25.3-2.5V175.9z M704.8,130.6c-0.1-12.1-9.3-22-21.3-23.5
			c-9.6-1.3-18.9,0.6-28.2,2.6c-8.8,2-8.8,2.3-8.7,11.3c0,0.7,0,1.4,0,2.1c0.2,3.8,2.2,5,6,4.4c7.5-1.2,15.1-2.3,22.7-3
			c1.9-0.2,4.2,1,5.8,2.2c3.7,2.7,3.5,6.9,3.1,11.4c-5.6,0.5-11,0.9-16.4,1.4c-7.3,0.7-14.6,1.2-21.2,4.8
			c-11.9,6.4-17.9,17.4-16.5,30.7c1.3,12.1,14.2,21.7,28.3,20.6c13.6-1,27.2-2.4,40.8-3.6c4.1-0.4,5.6-2,5.6-6.2
			C704.9,167.4,704.9,149,704.8,130.6L704.8,130.6z M288.7,224c0,0.2,0.1,0.5,0.1,0.7c0.2,3,2,4.3,4.8,4.1c3.1-0.2,6.2-0.6,9.3-0.8
			c4.8-0.4,6.2-1.9,6.2-6.7c0-17.4,0-34.8,0-52.1c0-7.2,4.4-12.3,11.2-12.9c3.7-0.3,7.3-0.5,11-0.7c8.6-0.5,11.8,2.5,11.8,11.1
			c0,16.6,0,33.1,0,49.7c0,1.1-0.1,2.3,0.1,3.4c0.4,2.8,1.7,4.4,4.8,4.2c3-0.3,5.9-0.5,8.9-0.7c4.7-0.3,6.7-2.3,6.7-7.1
			c0-17.3,0-34.5,0-51.8c0-7.9,4.6-12.6,12.4-13c3.1-0.1,6.2-0.4,9.3-0.8c8.5-0.9,12.5,2.6,12.5,11.1c0,14.5,0,29,0,43.5
			c0,3.1,0,6.2,0.1,9.3c0.1,3.1,1.7,4.7,4.8,4.5c3.6-0.2,7.1-0.3,10.6-0.8c3.5-0.5,4.8-2.4,4.8-6.4c0-18.4-0.1-36.8,0-55.2
			c0.1-11.7-8.2-19.5-17.4-22.5c-6.5-2.1-13.1-1.2-19.8-0.8c-10,0.6-19.6,2.2-27,8.8c-4.1-1.4-7.5-3.4-10.9-3.7
			c-6.5-0.5-13-0.4-19.5,0.2c-5.1,0.5-10.3,1.3-15,3.2c-11.6,4.6-19.4,13-19.7,26C288.5,186.5,288.8,205.3,288.7,224L288.7,224z
			 M489.2,182.4c3.4,0.1,5.7,2.5,5.7,5.9c-0.1,3.9-3.1,6.7-7.2,6.6c-3.2-0.1-5.5-2.4-5.5-5.7C482.3,185.4,485.4,182.3,489.2,182.4
			L489.2,182.4z M511.1,180.3c3,0.1,5.7,2.8,5.7,5.7c0.1,3.5-3.5,7.2-7,7.1c-3.1,0-6-2.9-5.9-6C503.9,183.7,507.6,180.2,511.1,180.3
			L511.1,180.3z M424.7,136.3c2.6-0.3,5-1.7,6.7-2.4c7,6.4,14,12.8,21.7,19.8c-5,1.7-8.9,3-12.7,4.3c-2.5-3.8-5.1-4.9-8.6-3.9
			c-2.8,0.8-5.1,3.9-5.3,6.9c-0.2,3.2,1.2,5.3,4,6.5c3.4,1.4,6.2,0,10.2-5.2c3.2,1.5,6.5,3.1,9.9,4.5c1.9,0.7,2.2,1.9,2.3,3.7
			c0.1,3,0.3,6,1.1,8.8c6,23,27,35.8,50.4,31.6c26.9-4.8,48.2-32.6,41.6-61.2c-5.1-22.4-25-34.3-45.4-32.7
			c-9.1,0.7-17.6,3.7-25.1,9.1c-1.5,1.1-2.6,1.3-4.2,0c-2.6-2.1-5.4-3.8-8-5.6c1.7-5.6,1.1-8.1-2-10.2c-2.6-1.7-6.2-1.4-8.9,0.7
			c-2.5,2-3.7,6.1-2.5,9c1.4,3.4,3.9,4.4,10,3.7c0.7,4.5,1.4,9,2.2,14c-9.2-3.1-17.7-5.9-26.1-8.9c-0.8-0.3-1.6-1.6-1.9-2.6
			c-1.3-5.2-4.7-7.5-9.9-6.6c-4.5,0.8-7.7,5.3-7.2,10.2C417.2,133.6,420.6,136.8,424.7,136.3L424.7,136.3z M654,298.5
			c-11.4,14.2-38.7,17.3-53.4,10.8c-8.8-3.9-15.6-13.8-15.3-22.3c0.1-4,3-7.6,6.8-8.5c4.4-1.1,7.4,0.2,9.7,4.4
			c1.5,2.7,2.8,5.5,4.2,8.2c1.9,3.6,5.1,5.7,8.9,6.4c7.3,1.3,14.4,0.6,20.7-3.8c4.6-3.2,7.2-7.6,6.3-13.2c-0.9-5.5-5.1-7.9-10-9
			c-7.9-1.7-15.9-3-23.8-4.9c-6.9-1.6-13.3-4.5-17.5-10.7c-5.5-8.2-4.5-21.5,2.6-29c3.7-3.9,8.3-6.9,12.1-9.9
			c-20.6,1.8-42.1,3.7-63.7,5.7c0.2,0.2,0.3,0.3,0.3,0.4c0.6,0.2,1.1,0.3,1.7,0.4c13.2,2.8,21.3,11.1,25.3,23.6
			c4.4,13.7,4.2,27.6-0.1,41.2c-4.9,15.6-15.2,25.9-31.7,28.8c-7.7,1.3-15.4,2-23.2,2.7c-5.1,0.5-10.3,0.7-15.5,0.7
			c-4.6,0-6.7-1.8-7.6-6.3c-0.4-1.8-0.6-3.6-0.6-5.4c0-22.4,0-44.9-0.1-67.3c0-5.4-0.1-10.7,5.1-14.7c-9.7,0.9-18.8,1.7-27.4,2.5
			c0.5,3.8,1.3,7.3,1.3,10.8c0.1,22.8,0.1,45.6,0,68.4c0,2.6-0.1,5.3-0.4,7.9c-0.5,4.5-2.8,7.6-7.2,9.1c-6,2-11.2,0-15.6-6.3
			c-8-11.3-15.8-22.8-23.7-34.1c-4.8-6.9-9.5-13.8-14.9-21.5v21c0,12,0,23.9,0,35.9c0,6.2-4.2,10.5-9.8,10.5c-5.3,0-8-3.2-8.2-10
			c0-1,0-2.1,0-3.1c0-22.7-0.1-45.3,0.1-68c0-4.5,1-9,1.5-13.7c-16.3,1.4-33.4,2.9-50.4,4.4c1.6,3,3.2,5.7,4.4,8.6
			c5.9,14,11.8,28,17.6,42c4.1,10,8.2,20,12,30.2c1.8,4.7-1.3,9.8-6.3,11.8c-4.9,1.9-8.7,0.4-11.2-4.8c-2.2-4.7-4.3-9.6-6.1-14.5
			c-0.8-2.2-1.8-3-4.2-2.8c-11.9,1.1-23.8,2-35.7,3c-0.3,1-0.6,1.9-1,2.9c-2.3,6-4.5,11.9-7,17.8c-1.5,3.5-4.5,4.9-8.4,4.8
			c-3.5-0.1-6.5-1.6-7.3-4.7c-0.7-3-0.5-6.6,0.5-9.5c2.5-7.7,5.6-15.2,8.5-22.8c7.7-20,15.4-39.9,23.1-60
			c-19.3,1.7-39.1,3.4-60.1,5.3c13.5,5.6,17.1,15.8,15.3,28.1c-1.9,12.8-11.6,18.6-22.8,22.4c0.2,0.4,0.2,0.7,0.4,0.8
			c11.7,7.4,18.6,18.4,23.7,30.8c0.7,1.8,0.7,4.3,0.1,6.2c-1.3,3.9-4.9,5.4-8.6,5.8c-4.3,0.5-7.5-2-9.7-5.4
			c-4.3-6.5-8.3-13.2-12.6-19.6c-2.3-3.4-4.7-6.8-7.6-9.7c-5.8-5.9-13.2-3.7-20.5-3.7c0,9.3,0.1,18.2,0,27.2c0,2.9-0.2,5.8-0.7,8.5
			c-1,4.7-5.7,7.9-10.9,7.6c-4.5-0.3-7.1-3.1-7.7-8.5c-0.2-1.7-0.3-3.4-0.3-5.2c0-22.8-0.1-45.6,0.1-68.4c0-3.9,1-7.8,1.5-11.8
			c-11.1,1-22.8,2-35.3,3.1c16.9,8.5,17.5,32,0.2,41.5c3.9,2.6,9.1,4.7,12.4,8.5c7.1,8.4,6.1,18.1,1.4,27.3
			c-5.6,10.9-15.8,14.6-27.2,16c-9.2,1.1-18.5,2.2-27.7,2.6c-6.1,0.3-12.6,2.9-18.5-1.3c-1,2.9,0.3,3.7,2.8,4.3
			c63.2,16.5,126.5,33.1,189.7,49.6c82.8,21.7,165.7,43.4,248.5,65.2c2.3,0.6,3.5,0.3,4.7-1.7c35.9-56.7,71.9-113.3,107.8-170
			c0.9-1.5,1.2-3.4,1.8-5.1C656.8,294.7,655.5,296.6,654,298.5L654,298.5z"/>
	</g>
</g>
</svg>
